<svg width="1556" height="541" viewBox="0 0 1556 541" fill="none" xmlns="http://www.w3.org/2000/svg">
<path d="M545.723 512.623L540.542 540.458H1540.46" fill="#005B52" fill-opacity="0.11"/>
<path d="M556.084 401.284L550.903 429.119L1550.82 445.356" fill="#005B52" fill-opacity="0.11"/>
<path d="M561.265 299.223L556.084 327.058L1550.82 357.212" fill="#005B52" fill-opacity="0.11"/>
<path d="M571.627 185.565L566.446 213.4L1550.82 259.791" fill="#005B52" fill-opacity="0.11"/>
<path d="M580.262 76.5455L575.081 104.38L1556 171.647" fill="#005B52" fill-opacity="0.11"/>
<path d="M481.825 540.458H516.364L562.992 0H530.18L481.825 540.458Z" fill="#005B52" fill-opacity="0.11"/>
<path d="M466.282 454.634L511.183 76.5455L421.381 78.865C421.381 78.865 352.302 83.5042 309.128 122.937C265.953 162.369 257.319 201.802 257.319 201.802L411.019 197.163L279.769 190.204C279.769 190.204 293.119 149.217 335.032 127.576C362.165 113.588 390.673 104.992 419.654 102.061H485.279L466.282 454.634Z" fill="#005B52" fill-opacity="0.11"/>
<path d="M411.019 215.719L246.957 220.358C246.957 220.358 202.055 215.719 181.332 280.667C166.048 328.589 162.335 350.254 162.335 350.254L117.434 352.573C117.434 352.573 60.4439 350.254 25.9045 436.077C0.189966 499.958 0 538.138 0 538.138L165.789 540.458C165.789 540.458 184.786 459.273 229.687 459.273C295.312 459.273 312.582 526.54 312.582 526.54C312.582 526.54 307.401 440.716 227.96 440.716C174.424 440.716 160.608 512.623 160.608 512.623H36.2664C36.2664 512.623 48.3552 426.799 74.2597 403.604C89.6578 389.743 107.558 381.728 126.069 380.408L343.667 371.13L360.937 255.152L227.96 259.791C227.96 259.791 231.414 238.915 245.23 234.276C255.445 231.296 265.862 229.742 276.315 229.636L411.019 215.719Z" fill="#005B52" fill-opacity="0.11"/>
</svg>
