<?xml version="1.0" encoding="UTF-8" standalone="no"?>
<svg
   xmlns:dc="http://purl.org/dc/elements/1.1/"
   xmlns:cc="http://creativecommons.org/ns#"
   xmlns:rdf="http://www.w3.org/1999/02/22-rdf-syntax-ns#"
   xmlns:svg="http://www.w3.org/2000/svg"
   xmlns="http://www.w3.org/2000/svg"
   xmlns:sodipodi="http://sodipodi.sourceforge.net/DTD/sodipodi-0.dtd"
   xmlns:inkscape="http://www.inkscape.org/namespaces/inkscape"
   version="1.0"
   width="350pt"
   height="50pt"
   viewBox="0 0 350 50"
   preserveAspectRatio="xMidYMid meet"
   id="svg50"
   sodipodi:docname="logo_car.svg"
   inkscape:version="0.92.3 (2405546, 2018-03-11)">
  <metadata
     id="metadata56">
    <rdf:RDF>
      <cc:Work
         rdf:about="">
        <dc:format>image/svg+xml</dc:format>
        <dc:type
           rdf:resource="http://purl.org/dc/dcmitype/StillImage" />
        <dc:title></dc:title>
      </cc:Work>
    </rdf:RDF>
  </metadata>
  <defs
     id="defs54" />
  <sodipodi:namedview
     pagecolor="#ffffff"
     bordercolor="#666666"
     borderopacity="1"
     objecttolerance="10"
     gridtolerance="10"
     guidetolerance="10"
     inkscape:pageopacity="0"
     inkscape:pageshadow="2"
     inkscape:window-width="1920"
     inkscape:window-height="1002"
     id="namedview52"
     showgrid="false"
     inkscape:zoom="0.63702372"
     inkscape:cx="-201.4031"
     inkscape:cy="152.84719"
     inkscape:window-x="0"
     inkscape:window-y="0"
     inkscape:window-maximized="1"
     inkscape:current-layer="g48" />
  <g
     transform="matrix(0.1,0,0,-0.1,-4.7094008,54.064093)"
     id="g48"
     style="fill:#000000;stroke:none">
    <path
       d="m 550.31783,480.76406 c 0,-1.21944 -9.14586,-78.85775 -20.32415,-172.34881 -11.17827,-93.49106 -20.52738,-172.14543 -20.93387,-174.99087 -0.40648,-4.87775 0,-5.08103 14.22691,-5.6907 l 14.63338,-0.60977 1.21945,6.70694 c 1.62594,9.95886 39.63208,340.02298 39.63208,344.90073 0,3.86159 -1.21945,4.26807 -14.22689,4.26807 -9.14587,0 -14.22691,-0.81296 -14.22691,-2.23559 z"
       id="path2"
       style="fill:#005b52;fill-opacity:1;stroke-width:0.20324144"
       inkscape:connector-curvature="0" />
    <path
       d="m 440.97394,429.75041 c -45.72933,-5.69079 -81.90632,-20.93387 -106.49852,-44.91638 -8.73939,-8.33285 -23.9825,-29.06353 -23.9825,-32.31536 0,-1.8292 44.50988,-1.62591 91.45866,0.20329 l 31.50242,1.21943 -51.21685,1.82911 c -28.25056,0.81305 -51.42008,2.43896 -51.42008,3.25192 0,0.81296 2.64213,5.08103 5.894,9.55229 21.95008,30.07978 73.57339,47.35534 142.6755,47.35534 h 32.31539 l -1.01621,-10.56862 c -2.03242,-18.90139 -15.24311,-205.68032 -14.63339,-206.29009 0.40649,-0.20319 8.53614,49.99741 18.49498,111.78287 9.75558,61.78538 18.29172,114.22166 18.90145,116.86381 l 1.01621,4.47127 -39.22561,-0.2032 c -21.74682,-0.20329 -46.1358,-1.21943 -54.26545,-2.23568 z"
       id="path4"
       style="fill:#005b52;fill-opacity:1;stroke-width:0.20324144"
       inkscape:connector-curvature="0" />
    <path
       d="m 592.99854,424.05962 c -1.21946,-4.67454 -2.03243,-8.73933 -1.62594,-9.14581 1.01621,-1.01624 769.8786,-39.83535 775.5693,-39.22559 3.0486,0.40648 -163.2028,12.80421 -369.49286,27.8441 -206.2901,14.8366 -381.07774,27.43753 -388.59768,28.04729 l -13.41392,1.21944 z"
       id="path6"
       style="fill:#005b52;fill-opacity:1;stroke-width:0.20324144"
       inkscape:connector-curvature="0" />
    <path
       d="m 1383.2013,347.13459 c 3.6583,-0.40648 9.1459,-0.40648 12.1944,0 3.0487,0.40648 0,0.81296 -6.7069,0.81296 -6.707,0 -9.1459,-0.40648 -5.4875,-0.81296 z"
       id="path8"
       style="fill:#005b52;fill-opacity:1;stroke-width:0.20324144"
       inkscape:connector-curvature="0" />
    <path
       d="m 585.27536,352.72196 c -1.21945,-4.87784 -2.03242,-9.14591 -1.62593,-9.34919 1.01621,-1.01615 754.02587,-27.23434 766.42357,-26.62457 6.7069,0.40648 -156.4961,10.16205 -362.7861,21.74683 -206.29002,11.38149 -380.46795,21.34035 -387.37815,21.95002 l -12.39774,1.21952 z"
       id="path10"
       style="fill:#005b52;fill-opacity:1;stroke-width:0.20324144"
       inkscape:connector-curvature="0" />
    <path
       d="m 329.80085,338.69822 c -39.83531,-1.01615 -45.72932,-1.62591 -54.4687,-5.6907 -19.51118,-8.94262 -32.92511,-29.06353 -45.32284,-68.08593 l -3.4551,-11.17829 -10.36531,-1.21944 c -5.69077,-0.60967 -16.25933,-1.21944 -23.57602,-1.21944 -22.76304,0 -45.11961,-8.33285 -62.39512,-23.16954 -17.27553,-15.0398 -36.786708,-51.21684 -44.713125,-83.32892 -1.829172,-7.51999 -2.845379,-13.82046 -2.438898,-14.22693 0.406483,-0.40649 33.331603,-1.21944 72.963673,-2.0324 l 72.35397,-1.21944 6.50373,13.2107 c 7.72317,15.64956 20.52738,30.28296 31.29919,35.77047 9.34909,4.67455 32.9251,5.28422 47.35524,0.81296 13.61718,-4.06488 30.28297,-16.05604 37.59967,-27.03114 7.51994,-11.3815 7.92641,-7.11342 0.81297,7.3167 -11.38152,22.96627 -34.34781,34.95752 -66.6632,34.95752 -13.00744,0 -18.69821,-1.01615 -26.62462,-4.87774 -12.1945,-5.4876 -25.81168,-20.3242 -30.68947,-32.92513 l -3.4551,-8.94262 h -54.46871 c -46.33906,0 -54.67196,0.40648 -54.67196,2.84535 0,5.28431 10.36533,36.38024 15.44637,46.33901 9.75558,19.51124 26.01489,31.5025 48.98118,36.17705 5.28428,1.01615 53.65574,3.45511 107.10825,5.08102 53.65574,1.8292 97.96237,3.65831 98.57209,4.26807 0.81297,0.60968 4.47132,17.68196 8.53614,37.80287 l 7.51994,36.78672 -58.73678,-1.21944 c -32.31539,-0.81295 -58.73678,-0.81295 -58.73678,0.20329 0,3.25183 6.50373,10.77172 12.19449,13.61716 3.86159,2.0324 20.32415,4.06479 48.16822,6.09718 23.16952,1.8292 51.01361,3.8616 61.58215,4.87784 l 19.30795,1.62591 h -25.40519 c -14.02365,-0.20319 -45.52608,-0.81296 -70.1183,-1.42272 z"
       id="path12"
       style="fill:#005b52;fill-opacity:1;stroke-width:0.20324144"
       inkscape:connector-curvature="0" />
    <path
       d="m 1373.0392,288.19456 c 4.6746,-0.40647 12.3977,-0.40647 17.2755,0 4.6746,0.40648 0.8129,0.81296 -8.7394,0.81296 -9.5523,0 -13.4139,-0.40648 -8.5361,-0.81296 z"
       id="path14"
       style="fill:#005b52;fill-opacity:1;stroke-width:0.20324144"
       inkscape:connector-curvature="0" />
    <path
       d="m 578.1619,284.63603 c -0.60972,-1.01624 -1.62592,-5.28431 -2.43889,-9.55238 l -1.42269,-7.5199 h 12.60098 c 6.9102,0 174.5844,-3.65831 372.54159,-8.12966 198.16041,-4.47127 368.88331,-7.92638 379.45171,-7.72319 10.5686,0.40648 -145.7241,7.72319 -347.54283,16.6658 -201.81875,8.73943 -377.01288,16.46261 -389.41062,16.86909 -12.60096,0.60967 -23.16952,0.40648 -23.77925,-0.60976 z"
       id="path16"
       style="fill:#005b52;fill-opacity:1;stroke-width:0.20324144"
       inkscape:connector-curvature="0" />
    <path
       d="m 1372.023,223.15727 c 6.5037,-0.40648 16.4625,-0.40648 22.3565,0 5.894,0.40657 0.6098,0.60976 -11.7879,0.60976 -12.1946,0 -17.0724,-0.20319 -10.5686,-0.60976 z"
       id="path18"
       style="fill:#005b52;fill-opacity:1;stroke-width:0.20324144"
       inkscape:connector-curvature="0" />
    <path
       d="m 571.2517,209.84316 -2.03241,-9.3491 h 25.60842 c 14.02365,0 176.61681,-1.8292 360.95678,-4.06479 184.54331,-2.43895 350.99801,-3.86158 369.89951,-3.65839 20.5273,0.40648 -113.2055,5.48751 -328.23496,12.60102 -199.58313,6.50365 -376.60642,12.39773 -393.27222,13.0074 l -30.68946,1.01624 z"
       id="path20"
       style="fill:#005b52;fill-opacity:1;stroke-width:0.20324144"
       inkscape:connector-curvature="0" />
    <path
       d="m 1377.104,164.21734 c 5.894,-0.40657 15.0399,-0.40657 20.3242,0 5.2842,0.40647 0.4064,0.60967 -10.7718,0.60967 -11.1783,0 -15.4464,-0.2032 -9.5524,-0.60967 z"
       id="path22"
       style="fill:#005b52;fill-opacity:1;stroke-width:0.20324144"
       inkscape:connector-curvature="0" />
    <path
       d="m 1412.6712,164.21734 c 1.8293,-0.40657 4.6746,-0.40657 6.0973,0 1.2195,0.60967 -0.2033,1.01615 -3.6584,1.01615 -3.2518,0 -4.4712,-0.40648 -2.4389,-1.01615 z"
       id="path24"
       style="fill:#005b52;fill-opacity:1;stroke-width:0.20324144"
       inkscape:connector-curvature="0" />
    <path
       d="m 562.71556,138.09892 c -1.21945,-4.26807 -2.23566,-8.33285 -2.23566,-9.14581 0,-1.01624 187.7951,-1.42272 417.2547,-1.21943 229.2564,0.20319 411.9704,0.60967 405.8732,1.01615 -12.3978,0.60976 -783.69905,16.86908 -805.24265,16.86908 h -13.61718 z"
       id="path26"
       style="fill:#005b52;fill-opacity:1;stroke-width:0.20324144"
       inkscape:connector-curvature="0" />
    <path
       d="m 1559.9191,377.58692 c -13.8571,-5.46995 -35.0074,-14.58645 -47.0412,-19.69163 -26.2556,-12.03383 -27.3495,-12.03383 -16.7744,-0.72931 14.2218,15.31568 5.1052,14.58638 -15.6805,-1.0941 -18.5976,-13.85697 -20.0561,-16.4096 -24.0674,-36.83063 -7.2932,-37.56003 -4.0113,-37.92464 63.0862,-4.01124 49.9586,25.16158 64.1803,29.90214 64.1803,20.78563 0,-13.85706 -32.0901,-68.19157 -63.451,-107.93945 -19.327,-24.06767 -35.0074,-46.31201 -35.0074,-49.59386 0,-9.48121 10.9398,-30.26677 16.7744,-32.45487 10.2105,-4.01116 19.6916,5.10534 51.4172,47.77064 27.7142,37.19534 107.2101,125.07845 120.7026,133.46565 20.0563,12.76323 -0.3646,-26.98483 -41.2067,-79.86062 -43.7591,-56.52227 -50.6878,-68.1915 -47.7706,-82.77787 3.2821,-17.86849 10.2107,-25.89089 19.6918,-22.97365 4.3758,1.45861 24.0675,21.51495 43.3945,44.85321 30.6315,36.46603 109.7629,112.6801 113.4095,109.03355 0.3647,-0.7294 -7.2932,-12.39853 -17.5037,-25.8909 -38.6541,-51.05248 -52.5111,-86.42449 -43.7592,-112.68009 2.1879,-7.2932 8.3872,-16.04509 13.1276,-19.32712 7.6579,-5.10516 11.3045,-5.10516 24.4323,-1.09392 18.5977,5.46996 48.4998,24.43228 70.0148,44.12391 l 16.0451,14.58647 4.0112,-14.58647 c 2.188,-8.02258 8.0225,-17.8684 13.4925,-22.24425 10.5751,-8.3872 13.1277,-7.2932 43.03,16.40978 8.0225,6.19908 16.7744,12.76305 19.3269,14.22167 6.1993,3.64663 5.8347,2.55272 -24.7969,-48.86446 -21.5149,-36.10133 -26.2556,-51.7818 -20.0563,-61.99223 1.4586,-2.188107 4.7406,-3.646726 6.9286,-2.917417 5.4698,1.09401 106.8455,111.586177 115.2327,125.078627 11.6691,19.32703 -1.8233,12.03375 -34.6428,-18.23301 -19.3269,-17.5037 -35.372,-31.36085 -36.466,-30.63155 -0.7293,0.72932 10.5752,19.32703 25.5263,40.84207 14.5863,21.51486 28.4435,44.12391 30.9961,49.95838 4.7406,11.66924 2.1879,29.17293 -4.0113,29.17293 -2.188,0 -20.7857,-16.40978 -41.9359,-36.46602 -36.8307,-35.7369 -56.8871,-51.05249 -66.0037,-51.05249 -10.5751,0 -3.2818,13.49236 22.609,40.84189 28.0789,29.53753 31.7256,38.28943 21.515,48.13524 -8.3872,8.75181 -16.045,3.28185 -63.4509,-44.85322 -54.6991,-55.42852 -86.0599,-72.56752 -92.9885,-51.41718 -6.1991,19.32701 12.0339,52.8758 62.3571,113.77411 47.4057,57.61635 47.0411,57.25157 36.8306,72.56735 -14.951,22.24434 -12.0338,23.70296 -104.6575,-56.52228 -56.5224,-48.86455 -56.5224,-49.22926 -52.8758,-42.30067 1.8233,2.91723 10.9398,17.5037 20.421,32.09016 31.7255,48.49976 35.372,71.10882 12.7632,81.31924 -13.4926,6.19927 -29.5376,-3.64663 -79.4961,-48.86455 -24.4322,-22.24418 -43.0299,-37.19534 -41.5712,-33.54879 18.9623,47.40594 20.7855,53.96991 16.4097,64.54504 -5.8346,13.85697 -17.5038,28.44343 -22.609,28.44343 -2.5526,-0.36462 -15.6805,-4.74047 -29.9022,-10.57513 z"
       id="path28"
       style="fill:#005b52;fill-opacity:1;stroke-width:0.36466047"
       inkscape:connector-curvature="0" />
    <path
       d="m 2152.1277,382.32748 c -81.6839,-24.7968 -114.5034,-188.52938 -45.9473,-227.91283 19.3271,-10.93973 59.0751,-12.03374 79.1314,-1.82322 16.4098,8.38719 32.0902,22.97366 39.0187,36.10132 8.3872,16.40978 3.6466,14.58647 -9.8459,-3.64655 -18.9623,-25.16158 -39.3832,-34.6427 -71.4734,-33.18408 -30.2667,1.45862 -46.6766,11.30444 -58.3456,34.6427 -10.5752,21.15026 -9.4812,86.42459 1.8233,114.86803 20.4209,51.7818 52.511,79.49601 92.259,79.49601 37.9247,0 58.3457,-15.31568 63.451,-48.13516 1.4587,-7.65788 4.0112,-13.85715 5.8345,-13.85715 4.7407,0 0.3646,23.33836 -6.1991,36.46603 -14.5866,28.079 -51.0525,39.01873 -89.7066,26.9849 z"
       id="path30"
       style="fill:#005b52;fill-opacity:1;stroke-width:0.36466047"
       inkscape:connector-curvature="0" />
    <path
       d="m 3424.4281,371.75236 c -1.094,-2.18794 -4.0113,-13.85707 -6.5639,-26.2556 l -4.7406,-22.97348 h -15.6803 c -8.752,0 -16.0451,-1.4588 -16.0451,-3.64673 0,-1.82323 6.5638,-3.64654 14.5864,-3.64654 8.0225,0 14.5863,-1.09393 14.5863,-2.55273 0,-1.82322 -6.9284,-35.37201 -15.3155,-74.75527 -12.3986,-59.07508 -14.2219,-73.66154 -10.94,-81.31924 4.7407,-10.21061 18.233,-14.95116 32.8195,-10.57531 9.4811,2.91742 9.1165,2.91742 -4.7406,4.37604 -17.8685,1.45862 -23.703,6.19927 -23.703,18.59762 0,7.65789 17.5038,95.5411 27.3496,138.20639 1.8233,6.92857 4.3759,8.0225 21.8795,8.0225 10.94,0 20.0564,1.82331 20.0564,3.64654 0,2.18793 -8.7518,3.64673 -19.6915,3.64673 h -19.3272 l 5.1054,22.24416 c 4.7404,20.78574 5.1051,35.00742 0.3646,26.98492 z"
       id="path32"
       style="fill:#005b52;fill-opacity:1;stroke-width:0.36466047"
       inkscape:connector-curvature="0" />
    <path
       d="m 2333.3639,322.52328 c -13.4923,-4.37604 -24.0675,-13.85715 -29.902,-28.07901 -5.8346,-13.49236 -6.1993,-15.6803 -2.188,-15.6803 1.4586,0 5.1052,5.83449 7.6578,13.12776 6.5639,18.23301 22.6089,26.98482 48.8645,26.98482 18.5976,0 22.6089,-1.45862 32.0902,-10.57513 10.9397,-10.93973 13.1277,-23.33827 8.3872,-47.04114 -2.1881,-10.93992 -2.5527,-10.93992 -32.0902,-13.49245 -58.7103,-4.74056 -86.0599,-19.69164 -91.5298,-50.68788 -3.2819,-16.4097 3.6466,-37.55995 14.5865,-44.48852 21.8797,-14.58647 57.981,-8.7519 78.0373,12.39853 9.8458,10.57513 11.6692,11.66905 9.8458,5.10517 -1.094,-4.37586 -3.2819,-11.30444 -4.3758,-15.31578 -1.0942,-4.01124 -0.3646,-7.29309 1.8233,-7.29309 2.1879,0 4.0111,1.09392 4.0111,2.18792 0,1.09393 6.564,30.63138 14.5865,65.27417 8.0226,34.6427 14.5865,66.00356 14.5865,69.2855 0,3.28203 -2.5528,11.66922 -5.8346,18.23301 -9.1166,19.69172 -40.1128,28.44361 -68.5563,20.05642 z m 58.3458,-86.42459 c -0.7293,-3.64663 -4.0114,-15.68039 -7.2933,-26.62021 -11.3044,-39.74806 -32.0901,-58.34568 -66.0036,-58.34568 -14.2217,0 -18.9623,1.82323 -28.0788,10.93974 -10.2105,10.21052 -10.9397,12.76324 -9.4811,29.53763 3.2818,33.91339 30.6315,49.95839 86.0599,50.32299 23.7029,0.3647 26.6202,-0.3646 24.7969,-5.83447 z"
       id="path34"
       style="fill:#005b52;fill-opacity:1;stroke-width:0.36466047"
       inkscape:connector-curvature="0" />
    <path
       d="m 2517.1528,321.42918 c -6.9285,-2.18793 -20.7856,-12.03375 -30.6314,-21.87956 l -17.8683,-17.8684 2.5526,14.22185 c 1.4586,7.6577 3.2818,16.77421 4.3758,20.42094 1.0942,3.28185 0.3646,6.19927 -1.4586,6.19927 -3.6465,0 -39.3833,-170.66116 -36.1015,-173.5784 2.5527,-2.91742 4.7408,5.10517 15.3159,56.88696 5.1052,25.1616 13.4924,54.33434 18.5977,64.54494 10.5751,21.87957 29.9021,39.38326 49.9585,45.58253 7.2932,2.18793 13.4923,5.46987 13.4923,7.29327 0,3.64656 -1.8232,3.28185 -18.233,-1.8234 z"
       id="path36"
       style="fill:#005b52;fill-opacity:1;stroke-width:0.36466047"
       inkscape:connector-curvature="0" />
    <path
       d="m 2595.5549,320.69987 c -51.7819,-18.23301 -79.1314,-121.79661 -42.3007,-158.99193 20.7857,-20.42095 56.5225,-17.1391 81.3194,7.65788 7.6577,7.65789 13.8571,12.76314 13.8571,11.30443 0,-1.094 -3.282,-15.31568 -7.2933,-30.99607 -8.7518,-35.0074 -16.4097,-48.49994 -33.184,-59.80437 -10.5752,-7.65789 -15.6804,-8.387199 -37.5602,-7.293191 -22.6089,1.093921 -25.8908,2.552541 -35.372,13.127841 -5.8345,6.56379 -10.5751,14.95099 -10.5751,18.96232 0,4.01116 -1.4586,7.29319 -3.6466,7.29319 -5.1053,0 -4.7406,-5.46996 1.8233,-20.42103 12.763,-30.996066 72.2027,-36.101413 100.2815,-8.38719 13.8572,13.85715 20.7857,36.8308 41.9361,140.02961 9.1164,44.12391 17.5036,82.41334 18.2329,84.96588 0.7294,2.18793 0,4.37604 -1.8232,4.37604 -1.8233,0 -4.3761,-4.37604 -5.8346,-9.846 -5.4698,-25.1614 -5.4698,-25.1614 -12.7632,-11.30443 -11.3043,22.24435 -37.1953,29.90223 -67.0974,19.32702 z m 53.6051,-12.39845 c 11.6692,-10.57512 12.0338,-11.30442 12.0338,-41.20667 -0.3646,-67.46208 -28.8082,-112.3154 -71.1089,-112.3154 -30.2668,0 -47.4058,21.15034 -47.4058,59.43968 0,39.38336 21.8797,84.60128 47.4058,98.09365 6.9285,3.64663 20.0564,6.56387 29.9022,6.56387 14.2219,0 19.6916,-2.18793 29.1729,-10.57513 z"
       id="path38"
       style="fill:#005b52;fill-opacity:1;stroke-width:0.36466047"
       inkscape:connector-curvature="0" />
    <path
       d="m 2767.6746,322.52328 c -28.4434,-9.11651 -49.5938,-36.83081 -59.4397,-78.402 -11.3044,-48.49995 -0.3646,-83.50736 29.5375,-95.1764 55.4285,-21.15043 105.0221,31.36068 105.3869,111.58608 0.3648,30.26677 -5.4699,45.58254 -21.515,56.15766 -11.3044,7.29328 -39.748,10.57513 -53.9697,5.83466 z m 51.7818,-12.76324 c 14.9509,-13.12766 20.0563,-30.26675 17.5037,-63.08623 -2.5528,-33.54878 -18.5976,-68.55618 -37.9247,-83.50725 -18.5977,-14.22168 -52.8759,-16.40979 -68.1914,-4.37587 -13.8572,10.93973 -20.4211,27.71413 -20.4211,53.60503 0,41.20667 21.1504,86.05989 47.4059,99.91696 19.3271,10.2106 47.7704,8.7518 61.6276,-2.55264 z"
       id="path40"
       style="fill:#005b52;fill-opacity:1;stroke-width:0.36466047"
       inkscape:connector-curvature="0" />
    <path
       d="m 2944.5349,322.15858 c -6.5639,-1.82341 -18.5977,-10.2106 -26.6202,-18.59781 -16.0451,-16.40959 -16.0451,-16.40959 -8.0226,12.76324 0.7294,3.28185 0,6.19927 -1.8231,6.19927 -2.9173,0 -31.3609,-129.8192 -35.7368,-162.27396 -3.2821,-28.44353 5.1051,-1.09402 14.951,47.40576 8.752,44.12408 20.0564,75.48476 31.7255,89.70661 17.5036,21.51486 56.5223,28.44344 74.0261,13.12767 14.5864,-12.39836 14.951,-29.53745 1.8233,-91.89437 -6.1992,-29.90224 -12.0339,-58.34567 -13.1279,-62.72154 -1.4585,-4.74065 -0.7292,-8.38719 1.094,-8.38719 2.1881,0 9.846,30.26675 17.5036,67.46209 12.3987,59.80429 13.4926,68.9208 9.4814,82.04865 -2.188,8.02257 -8.3872,17.13908 -13.4924,20.42093 -10.9399,7.29327 -35.7368,9.84582 -51.7819,4.74065 z"
       id="path42"
       style="fill:#005b52;fill-opacity:1;stroke-width:0.36466047"
       inkscape:connector-curvature="0" />
    <path
       d="m 3099.151,322.52328 c -13.4925,-4.37604 -24.0677,-13.85715 -29.9022,-28.07901 -5.8344,-13.49236 -6.1992,-15.6803 -2.188,-15.6803 1.4587,0 5.1053,5.83449 7.6579,13.12776 6.5639,18.23301 22.609,26.98482 48.8646,26.98482 18.5976,0 22.6089,-1.45862 32.0899,-10.57513 10.9399,-10.93973 13.1279,-23.33827 8.3873,-47.04114 -2.1879,-10.93992 -2.5526,-10.93992 -32.09,-13.49245 -58.7104,-4.74056 -86.0599,-19.69164 -91.5299,-50.68788 -3.2819,-16.4097 3.6466,-37.55995 14.5865,-44.48852 21.8796,-14.58647 57.9809,-8.7519 78.0374,12.39853 9.8457,10.57513 11.669,11.66905 9.8457,5.10517 -1.0939,-4.37586 -3.282,-11.30444 -4.3759,-15.31578 -1.094,-4.01124 -0.3647,-7.29309 1.8232,-7.29309 2.1881,0 4.0113,1.09392 4.0113,2.18792 0,1.09393 6.564,30.63138 14.5865,65.27417 8.0226,34.6427 14.5864,66.00356 14.5864,69.2855 0,3.28203 -2.5526,11.66922 -5.8344,18.23301 -9.1166,19.69172 -40.1128,28.44361 -68.5563,20.05642 z m 58.3456,-86.42459 c -0.7293,-3.64663 -4.0113,-15.68039 -7.2931,-26.62021 -11.3046,-39.74806 -32.0902,-58.34568 -66.0036,-58.34568 -14.2218,0 -18.9624,1.82323 -28.0789,10.93974 -10.2104,10.21052 -10.9397,12.76324 -9.4811,29.53763 3.2819,33.91339 30.6314,49.95839 86.0599,50.32299 23.7028,0.3647 26.6202,-0.3646 24.7968,-5.83447 z"
       id="path44"
       style="fill:#005b52;fill-opacity:1;stroke-width:0.36466047"
       inkscape:connector-curvature="0" />
    <path
       d="m 3222.7708,255.42571 c -14.951,-72.56743 -14.951,-86.42459 -0.3646,-100.28174 18.9623,-17.86831 57.2516,-12.76306 79.8606,11.3046 14.9512,15.68039 14.9512,15.31561 7.2933,-12.39852 -0.7294,-3.64655 0,-6.56379 1.8233,-6.56379 1.8231,0 10.2104,33.18399 18.5976,74.02597 17.5037,84.96596 20.7856,103.92829 17.1391,100.28174 -1.8234,-1.0941 -8.3872,-28.80832 -15.3158,-61.62779 -13.1278,-63.45084 -22.2442,-84.23649 -41.9359,-98.45824 -12.0338,-8.3872 -37.1954,-12.76306 -52.1464,-9.11651 -10.9399,2.55254 -20.4211,18.96232 -20.4211,34.27809 0,8.75181 16.045,95.54101 23.7029,127.63117 1.0941,4.37586 0.3647,8.02259 -1.0938,8.02259 -1.8234,0 -9.4813,-30.26693 -17.1392,-67.09757 z"
       id="path46"
       style="fill:#005b52;fill-opacity:1;stroke-width:0.36466047"
       inkscape:connector-curvature="0" />
  </g>
</svg>
